<svg xmlns="http://www.w3.org/2000/svg" version="1.1" xmlns:xlink="http://www.w3.org/1999/xlink" xmlns:svgjs="http://svgjs.dev/svgjs" width="2000" height="3729" viewBox="0 0 2000 3729"><g transform="matrix(1,0,0,1,-4.88114245751035,-6.014516129032245)"><svg viewBox="0 0 133 248" data-background-color="#000000" preserveAspectRatio="xMidYMid meet" height="3729" width="2000" xmlns="http://www.w3.org/2000/svg" xmlns:xlink="http://www.w3.org/1999/xlink"><g id="tight-bounds" transform="matrix(1,0,0,1,0.3245959734244366,0.4000000000000057)"><svg viewBox="0 0 132.35080805315113 247.2" height="247.2" width="132.35080805315113"><g><svg viewBox="0 0 254.96138147566717 476.2075458993341" height="247.2" width="132.35080805315113"><g transform="matrix(1,0,0,1,0,229.0075458993341)"><svg viewBox="0 0 254.96138147566717 247.2" height="247.2" width="254.96138147566717"><g id="textblocktransform"><svg viewBox="0 0 254.96138147566717 247.2" height="247.2" width="254.96138147566717" id="textblock"><g><svg viewBox="0 0 254.96138147566717 247.2" height="247.2" width="254.96138147566717"><g transform="matrix(1,0,0,1,0,0)"><svg width="254.96138147566717" viewBox="2.15 -31.7 32.85 31.849999999999998" height="247.2" data-palette-color="url(#584c2c33-67e4-440c-b8fa-de162e9cc133)"></svg></g></svg></g></svg></g></svg></g><g transform="matrix(1,0,0,1,71.33490498816653,0)"><svg viewBox="0 0 112.2915714993341 112.2915714993341" height="112.2915714993341" width="112.2915714993341"><g><svg></svg></g><g id="icon-0"><svg viewBox="0 0 112.2915714993341 112.2915714993341" height="112.2915714993341" width="112.2915714993341"><g></g><g transform="matrix(1,0,0,1,55.0889760293875,55.09622035151706)"><svg viewBox="0 0 2.1136194405590913 2.099130796299972" height="2.099130796299972" width="2.1136194405590913"><g><svg xmlns="http://www.w3.org/2000/svg" xmlns:xlink="http://www.w3.org/1999/xlink" version="1.1" x="0" y="0" viewBox="0.572 0.9999375304993624 62.428 62.00006246950064" style="enable-background:new 0 0 64 64;" xml:space="preserve" height="2.099130796299972" width="2.1136194405590913" class="icon-dxe-0" data-fill-palette-color="quaternary" id="dxe-0"><g fill="#000000" data-fill-palette-color="quaternary"><path d="M63 50.782V43.218L60.264 42.54A14 14 0 0 0 59.536 40.77L60.988 38.36 55.639 33.012 53.229 34.463A14 14 0 0 0 51.46 33.734L50.782 31H43.218L42.54 33.735C41.929 33.94 41.337 34.183 40.771 34.464L38.361 33.013 33.012 38.361 33.544 39.244 27 38.153V37.895A12.06 12.06 0 0 0 32.376 33H34C35.654 33 37 31.654 37 30 38.654 30 40 28.654 40 27V23A3 3 0 0 0 38 20.184V16.85C38 8.11 30.89 1 22.151 1A15.74 15.74 0 0 0 10.944 5.643L10.48 6.105A6.27 6.27 0 0 0 6 12.123V20.184A3 3 0 0 0 4 23V27C4 28.654 5.346 30 7 30H10.395A12.04 12.04 0 0 0 17 37.895V38.153L9.291 39.438A7.01 7.01 0 0 0 3.863 43.951L0.572 53H34.36C34.396 53.076 34.427 53.155 34.464 53.229L33.012 55.639 38.361 60.987 40.771 59.536C41.337 59.816 41.929 60.059 42.54 60.265L43.218 63H50.782L51.46 60.265A14 14 0 0 0 53.229 59.536L55.639 60.987 60.988 55.639 59.536 53.229C59.816 52.664 60.059 52.072 60.264 51.459zM31.879 51H23V44.899A5 5 0 0 0 26.982 40.177L34.189 41.378C34.024 41.757 33.869 42.142 33.736 42.54L31 43.218V50.782zM19 38.605C19.961 38.854 20.963 39 22 39S24.039 38.854 25 38.605V40C25 41.654 23.654 43 22 43S19 41.654 19 40zM34 31H33.3C33.416 30.673 33.517 30.34 33.605 30H35C35 30.552 34.551 31 34 31M38 27C38 27.552 37.551 28 37 28V24H35V28H33.949C33.977 27.669 34 27.338 34 27V22H37C37.551 22 38 22.448 38 23zM7 28C6.449 28 6 27.552 6 27V23C6 22.448 6.449 22 7 22H10V27C10 27.338 10.023 27.669 10.051 28zM10 18V20H8V12.123A4.274 4.274 0 0 1 11.243 7.97L11.512 7.904 12.359 7.057A13.75 13.75 0 0 1 22.151 3C29.787 3 36 9.213 36 16.85V20H34V18H33A13.4 13.4 0 0 1 23.465 14.051L22 12.585 20.536 14.051A13.4 13.4 0 0 1 11 18zM12 27V19.969A15.37 15.37 0 0 0 21.95 15.465L22 15.415 22.05 15.465A15.37 15.37 0 0 0 32 19.969V27A9.9 9.9 0 0 1 31.159 31H25.816A3 3 0 0 0 23 29H21C19.346 29 18 30.346 18 32S19.346 35 21 35H23A3 3 0 0 0 25.816 33H29.981C28.154 35.423 25.262 37 22 37 16.486 37 12 32.514 12 27M24 32C24 32.552 23.551 33 23 33H21A1.001 1.001 0 0 1 21 31H23C23.551 31 24 31.448 24 32M5.743 44.634A5.01 5.01 0 0 1 9.62 41.41L17.018 40.177A5 5 0 0 0 21 44.899V51H10.281L10.97 48.242 9.03 47.758 8.219 51H3.428zM58.678 49.793L58.517 50.347C58.267 51.209 57.93 52.029 57.514 52.783L57.236 53.288 58.468 55.332 55.332 58.469 53.288 57.237 52.783 57.515C52.027 57.931 51.207 58.269 50.347 58.519L49.793 58.679 49.218 61H44.782L44.207 58.678 43.653 58.518C42.793 58.268 41.974 57.93 41.217 57.514L40.712 57.236 38.668 58.468 35.532 55.331 36.764 53.287 36.486 52.782A12 12 0 0 1 35.483 50.346L35.322 49.792 33 49.218V44.782L35.322 44.207 35.483 43.653C35.733 42.791 36.07 41.971 36.486 41.217L36.764 40.712 35.532 38.668 38.668 35.531 40.712 36.763 41.217 36.485A12 12 0 0 1 43.653 35.481L44.207 35.321 44.782 33H49.218L49.793 35.322 50.347 35.482C51.207 35.732 52.026 36.07 52.783 36.486L53.288 36.764 55.332 35.532 58.468 38.669 57.236 40.713 57.514 41.218C57.93 41.972 58.267 42.791 58.517 43.654L58.678 44.208 61 44.782V49.218z" fill="#000000" data-fill-palette-color="quaternary"></path><path d="M47 37C41.486 37 37 41.486 37 47S41.486 57 47 57 57 52.514 57 47 52.514 37 47 37M47 55C42.589 55 39 51.411 39 47S42.589 39 47 39 55 42.589 55 47 51.411 55 47 55" fill="#000000" data-fill-palette-color="quaternary"></path><path d="M47 41C43.691 41 41 43.691 41 47S43.691 53 47 53V51C44.794 51 43 49.206 43 47S44.794 43 47 43 51 44.794 51 47H53C53 43.691 50.309 41 47 41" fill="#000000" data-fill-palette-color="quaternary"></path><circle cx="16" cy="23" r="1.0" fill="#000000" data-fill-palette-color="quaternary"></circle><circle cx="28" cy="23" r="1.0" fill="#000000" data-fill-palette-color="quaternary"></circle></g></svg></g></svg></g></svg></g></svg></g><g></g></svg></g><defs></defs><mask id="2204b7bd-4b22-4194-9394-dc244e41ed6a"><g id="SvgjsG1419"><svg viewBox="0 0 132.35080805315113 247.2" height="247.2" width="132.35080805315113"><g><svg viewBox="0 0 254.96138147566717 476.2075458993341" height="247.2" width="132.35080805315113"><g transform="matrix(1,0,0,1,0,229.0075458993341)"><svg viewBox="0 0 254.96138147566717 247.2" height="247.2" width="254.96138147566717"><g id="SvgjsG1418"><svg viewBox="0 0 254.96138147566717 247.2" height="247.2" width="254.96138147566717" id="SvgjsSvg1417"><g><svg viewBox="0 0 254.96138147566717 247.2" height="247.2" width="254.96138147566717"><g transform="matrix(1,0,0,1,0,0)"><svg width="254.96138147566717" viewBox="2.15 -31.7 32.85 31.849999999999998" height="247.2" data-palette-color="url(#584c2c33-67e4-440c-b8fa-de162e9cc133)"><path d="M3.05 0.15L3.05 0.15Q2.55 0.15 2.35-0.2 2.15-0.55 2.15-0.95L2.15-0.95Q2.2-1.8 2.55-1.9 2.9-2 3.4-2L3.4-2Q5-2 5.65-2.58 6.3-3.15 6.48-4.03 6.65-4.9 6.65-5.85L6.65-5.85 6.65-25.7Q6.65-26.65 6.48-27.53 6.3-28.4 5.65-28.98 5-29.55 3.4-29.55L3.4-29.55Q2.9-29.55 2.55-29.65 2.2-29.75 2.15-30.6L2.15-30.6Q2.15-31 2.35-31.35 2.55-31.7 3.05-31.7L3.05-31.7Q4.65-31.65 6.05-31.6 7.45-31.55 8.95-31.55L8.95-31.55Q12-31.55 15.2-31.7L15.2-31.7Q15.7-31.7 15.9-31.35 16.1-31 16.1-30.6L16.1-30.6Q16.05-29.75 15.73-29.65 15.4-29.55 14.85-29.55L14.85-29.55Q13.3-29.55 12.63-28.98 11.95-28.4 11.8-27.53 11.65-26.65 11.6-25.7L11.6-25.7 11.6-16.65Q12.45-16.85 13.58-17.68 14.7-18.5 15.85-19.45L15.85-19.45Q17.75-21.2 19.55-23.23 21.35-25.25 22.9-27.1L22.9-27.1Q24.9-29.35 22.45-29.5L22.45-29.5Q21.9-29.55 21.75-30.55L21.75-30.55Q21.75-31 22-31.35 22.25-31.7 22.65-31.7L22.65-31.7Q23.95-31.6 25.4-31.58 26.85-31.55 28.15-31.55L28.15-31.55Q29.15-31.55 30.45-31.6 31.75-31.65 32.7-31.7L32.7-31.7Q33.2-31.7 33.43-31.35 33.65-31 33.65-30.55L33.65-30.55Q33.6-29.8 33.33-29.65 33.05-29.5 32.65-29.5L32.65-29.5Q30.8-29.6 29-28.9 27.2-28.2 25.15-26.15L25.15-26.15Q24.5-25.45 23.48-24.38 22.45-23.3 21.33-22.15 20.2-21 19.23-20 18.25-19 17.65-18.35 17.05-17.7 17.05-17.7L17.05-17.7Q20-14.15 23.03-11.15 26.05-8.15 28.2-5.85L28.2-5.85Q29.9-4.15 30.98-3.18 32.05-2.2 33.75-2L33.75-2Q34.15-1.95 34.55-1.88 34.95-1.8 35-0.95L35-0.95Q35-0.55 34.8-0.2 34.6 0.15 34.1 0.15L34.1 0.15Q33.05 0.1 32.48 0.08 31.9 0.05 31.38 0.03 30.85 0 29.85 0L29.85 0 26.65 0Q23.9-3.05 21.03-6.3 18.15-9.55 14.85-13.35L14.85-13.35Q13.95-14.4 13.18-14.85 12.4-15.3 11.6-15.35L11.6-15.35 11.6-5.85Q11.65-4.9 11.8-4.03 11.95-3.15 12.63-2.58 13.3-2 14.85-2L14.85-2Q15.4-2 15.73-1.9 16.05-1.8 16.1-0.95L16.1-0.95Q16.1-0.55 15.9-0.2 15.7 0.15 15.2 0.15L15.2 0.15Q12 0 9 0L9 0Q7.5 0 6.08 0.03 4.65 0.05 3.05 0.15Z" opacity="1" transform="matrix(1,0,0,1,0,0)" fill="white" class="wordmark-text-0" id="SvgjsPath1416"></path></svg></g></svg></g></svg></g></svg></g><g transform="matrix(1,0,0,1,71.33490498816653,0)"><svg viewBox="0 0 112.2915714993341 112.2915714993341" height="112.2915714993341" width="112.2915714993341"><g><svg></svg></g><g id="SvgjsG1415"><svg viewBox="0 0 112.2915714993341 112.2915714993341" height="112.2915714993341" width="112.2915714993341"><g><path d="M0 56.146c0-31.008 25.137-56.146 56.146-56.146 31.008 0 56.146 25.137 56.146 56.146 0 31.008-25.137 56.146-56.146 56.146-31.008 0-56.146-25.137-56.146-56.146zM56.146 89.999c18.697 0 33.853-15.157 33.853-33.853 0-18.697-15.157-33.853-33.853-33.853-18.697 0-33.853 15.157-33.853 33.853 0 18.697 15.157 33.853 33.853 33.853z" fill="black" stroke="transparent"></path><ellipse rx="55.58432789217038" ry="55.58432789217038" cx="56.14578574966705" cy="56.14578574966705" fill="black" stroke="transparent" stroke-width="0" fill-opacity="1"></ellipse></g><g transform="matrix(1,0,0,1,55.0889760293875,55.09622035151706)"><svg viewBox="0 0 2.1136194405590913 2.099130796299972" height="2.099130796299972" width="2.1136194405590913"><g><svg xmlns="http://www.w3.org/2000/svg" xmlns:xlink="http://www.w3.org/1999/xlink" version="1.1" x="0" y="0" viewBox="0.572 0.9999375304993624 62.428 62.00006246950064" style="enable-background:new 0 0 64 64;" xml:space="preserve" height="2.099130796299972" width="2.1136194405590913" class="icon-dxe-0" data-fill-palette-color="quaternary" id="SvgjsSvg1414"><g fill="black"><path d="M63 50.782V43.218L60.264 42.54A14 14 0 0 0 59.536 40.77L60.988 38.36 55.639 33.012 53.229 34.463A14 14 0 0 0 51.46 33.734L50.782 31H43.218L42.54 33.735C41.929 33.94 41.337 34.183 40.771 34.464L38.361 33.013 33.012 38.361 33.544 39.244 27 38.153V37.895A12.06 12.06 0 0 0 32.376 33H34C35.654 33 37 31.654 37 30 38.654 30 40 28.654 40 27V23A3 3 0 0 0 38 20.184V16.85C38 8.11 30.89 1 22.151 1A15.74 15.74 0 0 0 10.944 5.643L10.48 6.105A6.27 6.27 0 0 0 6 12.123V20.184A3 3 0 0 0 4 23V27C4 28.654 5.346 30 7 30H10.395A12.04 12.04 0 0 0 17 37.895V38.153L9.291 39.438A7.01 7.01 0 0 0 3.863 43.951L0.572 53H34.36C34.396 53.076 34.427 53.155 34.464 53.229L33.012 55.639 38.361 60.987 40.771 59.536C41.337 59.816 41.929 60.059 42.54 60.265L43.218 63H50.782L51.46 60.265A14 14 0 0 0 53.229 59.536L55.639 60.987 60.988 55.639 59.536 53.229C59.816 52.664 60.059 52.072 60.264 51.459zM31.879 51H23V44.899A5 5 0 0 0 26.982 40.177L34.189 41.378C34.024 41.757 33.869 42.142 33.736 42.54L31 43.218V50.782zM19 38.605C19.961 38.854 20.963 39 22 39S24.039 38.854 25 38.605V40C25 41.654 23.654 43 22 43S19 41.654 19 40zM34 31H33.3C33.416 30.673 33.517 30.34 33.605 30H35C35 30.552 34.551 31 34 31M38 27C38 27.552 37.551 28 37 28V24H35V28H33.949C33.977 27.669 34 27.338 34 27V22H37C37.551 22 38 22.448 38 23zM7 28C6.449 28 6 27.552 6 27V23C6 22.448 6.449 22 7 22H10V27C10 27.338 10.023 27.669 10.051 28zM10 18V20H8V12.123A4.274 4.274 0 0 1 11.243 7.97L11.512 7.904 12.359 7.057A13.75 13.75 0 0 1 22.151 3C29.787 3 36 9.213 36 16.85V20H34V18H33A13.4 13.4 0 0 1 23.465 14.051L22 12.585 20.536 14.051A13.4 13.4 0 0 1 11 18zM12 27V19.969A15.37 15.37 0 0 0 21.95 15.465L22 15.415 22.05 15.465A15.37 15.37 0 0 0 32 19.969V27A9.9 9.9 0 0 1 31.159 31H25.816A3 3 0 0 0 23 29H21C19.346 29 18 30.346 18 32S19.346 35 21 35H23A3 3 0 0 0 25.816 33H29.981C28.154 35.423 25.262 37 22 37 16.486 37 12 32.514 12 27M24 32C24 32.552 23.551 33 23 33H21A1.001 1.001 0 0 1 21 31H23C23.551 31 24 31.448 24 32M5.743 44.634A5.01 5.01 0 0 1 9.62 41.41L17.018 40.177A5 5 0 0 0 21 44.899V51H10.281L10.97 48.242 9.03 47.758 8.219 51H3.428zM58.678 49.793L58.517 50.347C58.267 51.209 57.93 52.029 57.514 52.783L57.236 53.288 58.468 55.332 55.332 58.469 53.288 57.237 52.783 57.515C52.027 57.931 51.207 58.269 50.347 58.519L49.793 58.679 49.218 61H44.782L44.207 58.678 43.653 58.518C42.793 58.268 41.974 57.93 41.217 57.514L40.712 57.236 38.668 58.468 35.532 55.331 36.764 53.287 36.486 52.782A12 12 0 0 1 35.483 50.346L35.322 49.792 33 49.218V44.782L35.322 44.207 35.483 43.653C35.733 42.791 36.07 41.971 36.486 41.217L36.764 40.712 35.532 38.668 38.668 35.531 40.712 36.763 41.217 36.485A12 12 0 0 1 43.653 35.481L44.207 35.321 44.782 33H49.218L49.793 35.322 50.347 35.482C51.207 35.732 52.026 36.07 52.783 36.486L53.288 36.764 55.332 35.532 58.468 38.669 57.236 40.713 57.514 41.218C57.93 41.972 58.267 42.791 58.517 43.654L58.678 44.208 61 44.782V49.218z" fill="black"></path><path d="M47 37C41.486 37 37 41.486 37 47S41.486 57 47 57 57 52.514 57 47 52.514 37 47 37M47 55C42.589 55 39 51.411 39 47S42.589 39 47 39 55 42.589 55 47 51.411 55 47 55" fill="black"></path><path d="M47 41C43.691 41 41 43.691 41 47S43.691 53 47 53V51C44.794 51 43 49.206 43 47S44.794 43 47 43 51 44.794 51 47H53C53 43.691 50.309 41 47 41" fill="black"></path><circle cx="16" cy="23" r="1.0" fill="black"></circle><circle cx="28" cy="23" r="1.0" fill="black"></circle></g></svg></g></svg></g></svg></g></svg></g><g></g></svg></g><defs><mask></mask></defs></svg><rect width="132.35080805315113" height="247.2" fill="black" stroke="none" visibility="hidden"></rect></g></mask><linearGradient x1="0" x2="1" y1="0.5" y2="0.5" id="584c2c33-67e4-440c-b8fa-de162e9cc133"><stop stop-color="#f00b51" offset="0"></stop><stop stop-color="#730062" offset="1"></stop></linearGradient><rect width="132.35080805315113" height="247.2" fill="url(#584c2c33-67e4-440c-b8fa-de162e9cc133)" mask="url(#2204b7bd-4b22-4194-9394-dc244e41ed6a)" data-fill-palette-color="primary"></rect><mask id="d83fab65-76a9-44a9-a3c0-f29c94002662"><g id="SvgjsG1442"><svg viewBox="0 0 132.35080805315113 247.2" height="247.2" width="132.35080805315113"><g><svg viewBox="0 0 254.96138147566717 476.2075458993341" height="247.2" width="132.35080805315113"><g transform="matrix(1,0,0,1,0,229.0075458993341)"><svg viewBox="0 0 254.96138147566717 247.2" height="247.2" width="254.96138147566717"><g id="SvgjsG1441"><svg viewBox="0 0 254.96138147566717 247.2" height="247.2" width="254.96138147566717" id="SvgjsSvg1440"><g><svg viewBox="0 0 254.96138147566717 247.2" height="247.2" width="254.96138147566717"><g transform="matrix(1,0,0,1,0,0)"><svg width="254.96138147566717" viewBox="2.15 -31.7 32.85 31.849999999999998" height="247.2" data-palette-color="url(#584c2c33-67e4-440c-b8fa-de162e9cc133)"></svg></g></svg></g></svg></g></svg></g><g transform="matrix(1,0,0,1,71.33490498816653,0)"><svg viewBox="0 0 112.2915714993341 112.2915714993341" height="112.2915714993341" width="112.2915714993341"><g><svg></svg></g><g id="SvgjsG1439"><svg viewBox="0 0 112.2915714993341 112.2915714993341" height="112.2915714993341" width="112.2915714993341"><g><path d="M0 56.146c0-31.008 25.137-56.146 56.146-56.146 31.008 0 56.146 25.137 56.146 56.146 0 31.008-25.137 56.146-56.146 56.146-31.008 0-56.146-25.137-56.146-56.146zM56.146 89.999c18.697 0 33.853-15.157 33.853-33.853 0-18.697-15.157-33.853-33.853-33.853-18.697 0-33.853 15.157-33.853 33.853 0 18.697 15.157 33.853 33.853 33.853z" fill="white" stroke="transparent"></path><ellipse rx="55.58432789217038" ry="55.58432789217038" cx="56.14578574966705" cy="56.14578574966705" fill="white" stroke="transparent" stroke-width="0" fill-opacity="1"></ellipse></g><g transform="matrix(1,0,0,1,55.0889760293875,55.09622035151706)"><svg viewBox="0 0 2.1136194405590913 2.099130796299972" height="2.099130796299972" width="2.1136194405590913"><g><svg xmlns="http://www.w3.org/2000/svg" xmlns:xlink="http://www.w3.org/1999/xlink" version="1.1" x="0" y="0" viewBox="0.572 0.9999375304993624 62.428 62.00006246950064" style="enable-background:new 0 0 64 64;" xml:space="preserve" height="2.099130796299972" width="2.1136194405590913" class="icon-dxe-0" data-fill-palette-color="quaternary" id="SvgjsSvg1438"><g fill="black"><path d="M63 50.782V43.218L60.264 42.54A14 14 0 0 0 59.536 40.77L60.988 38.36 55.639 33.012 53.229 34.463A14 14 0 0 0 51.46 33.734L50.782 31H43.218L42.54 33.735C41.929 33.94 41.337 34.183 40.771 34.464L38.361 33.013 33.012 38.361 33.544 39.244 27 38.153V37.895A12.06 12.06 0 0 0 32.376 33H34C35.654 33 37 31.654 37 30 38.654 30 40 28.654 40 27V23A3 3 0 0 0 38 20.184V16.85C38 8.11 30.89 1 22.151 1A15.74 15.74 0 0 0 10.944 5.643L10.48 6.105A6.27 6.27 0 0 0 6 12.123V20.184A3 3 0 0 0 4 23V27C4 28.654 5.346 30 7 30H10.395A12.04 12.04 0 0 0 17 37.895V38.153L9.291 39.438A7.01 7.01 0 0 0 3.863 43.951L0.572 53H34.36C34.396 53.076 34.427 53.155 34.464 53.229L33.012 55.639 38.361 60.987 40.771 59.536C41.337 59.816 41.929 60.059 42.54 60.265L43.218 63H50.782L51.46 60.265A14 14 0 0 0 53.229 59.536L55.639 60.987 60.988 55.639 59.536 53.229C59.816 52.664 60.059 52.072 60.264 51.459zM31.879 51H23V44.899A5 5 0 0 0 26.982 40.177L34.189 41.378C34.024 41.757 33.869 42.142 33.736 42.54L31 43.218V50.782zM19 38.605C19.961 38.854 20.963 39 22 39S24.039 38.854 25 38.605V40C25 41.654 23.654 43 22 43S19 41.654 19 40zM34 31H33.3C33.416 30.673 33.517 30.34 33.605 30H35C35 30.552 34.551 31 34 31M38 27C38 27.552 37.551 28 37 28V24H35V28H33.949C33.977 27.669 34 27.338 34 27V22H37C37.551 22 38 22.448 38 23zM7 28C6.449 28 6 27.552 6 27V23C6 22.448 6.449 22 7 22H10V27C10 27.338 10.023 27.669 10.051 28zM10 18V20H8V12.123A4.274 4.274 0 0 1 11.243 7.97L11.512 7.904 12.359 7.057A13.75 13.75 0 0 1 22.151 3C29.787 3 36 9.213 36 16.85V20H34V18H33A13.4 13.4 0 0 1 23.465 14.051L22 12.585 20.536 14.051A13.4 13.4 0 0 1 11 18zM12 27V19.969A15.37 15.37 0 0 0 21.95 15.465L22 15.415 22.05 15.465A15.37 15.37 0 0 0 32 19.969V27A9.9 9.9 0 0 1 31.159 31H25.816A3 3 0 0 0 23 29H21C19.346 29 18 30.346 18 32S19.346 35 21 35H23A3 3 0 0 0 25.816 33H29.981C28.154 35.423 25.262 37 22 37 16.486 37 12 32.514 12 27M24 32C24 32.552 23.551 33 23 33H21A1.001 1.001 0 0 1 21 31H23C23.551 31 24 31.448 24 32M5.743 44.634A5.01 5.01 0 0 1 9.62 41.41L17.018 40.177A5 5 0 0 0 21 44.899V51H10.281L10.97 48.242 9.03 47.758 8.219 51H3.428zM58.678 49.793L58.517 50.347C58.267 51.209 57.93 52.029 57.514 52.783L57.236 53.288 58.468 55.332 55.332 58.469 53.288 57.237 52.783 57.515C52.027 57.931 51.207 58.269 50.347 58.519L49.793 58.679 49.218 61H44.782L44.207 58.678 43.653 58.518C42.793 58.268 41.974 57.93 41.217 57.514L40.712 57.236 38.668 58.468 35.532 55.331 36.764 53.287 36.486 52.782A12 12 0 0 1 35.483 50.346L35.322 49.792 33 49.218V44.782L35.322 44.207 35.483 43.653C35.733 42.791 36.07 41.971 36.486 41.217L36.764 40.712 35.532 38.668 38.668 35.531 40.712 36.763 41.217 36.485A12 12 0 0 1 43.653 35.481L44.207 35.321 44.782 33H49.218L49.793 35.322 50.347 35.482C51.207 35.732 52.026 36.07 52.783 36.486L53.288 36.764 55.332 35.532 58.468 38.669 57.236 40.713 57.514 41.218C57.93 41.972 58.267 42.791 58.517 43.654L58.678 44.208 61 44.782V49.218z" fill="black"></path><path d="M47 37C41.486 37 37 41.486 37 47S41.486 57 47 57 57 52.514 57 47 52.514 37 47 37M47 55C42.589 55 39 51.411 39 47S42.589 39 47 39 55 42.589 55 47 51.411 55 47 55" fill="black"></path><path d="M47 41C43.691 41 41 43.691 41 47S43.691 53 47 53V51C44.794 51 43 49.206 43 47S44.794 43 47 43 51 44.794 51 47H53C53 43.691 50.309 41 47 41" fill="black"></path><circle cx="16" cy="23" r="1.0" fill="black"></circle><circle cx="28" cy="23" r="1.0" fill="black"></circle></g></svg></g></svg></g></svg></g></svg></g><g></g></svg></g><defs><mask></mask></defs><mask><g id="SvgjsG1437"><svg viewBox="0 0 132.35080805315113 247.2" height="247.2" width="132.35080805315113"><g><svg viewBox="0 0 254.96138147566717 476.2075458993341" height="247.2" width="132.35080805315113"><g transform="matrix(1,0,0,1,0,229.0075458993341)"><svg viewBox="0 0 254.96138147566717 247.2" height="247.2" width="254.96138147566717"><g id="SvgjsG1436"><svg viewBox="0 0 254.96138147566717 247.2" height="247.2" width="254.96138147566717" id="SvgjsSvg1435"><g><svg viewBox="0 0 254.96138147566717 247.2" height="247.2" width="254.96138147566717"><g transform="matrix(1,0,0,1,0,0)"><svg width="254.96138147566717" viewBox="2.15 -31.7 32.85 31.849999999999998" height="247.2" data-palette-color="url(#584c2c33-67e4-440c-b8fa-de162e9cc133)"><path d="M3.05 0.15L3.05 0.15Q2.55 0.15 2.35-0.2 2.15-0.55 2.15-0.95L2.15-0.95Q2.2-1.8 2.55-1.9 2.9-2 3.4-2L3.4-2Q5-2 5.65-2.58 6.3-3.15 6.48-4.03 6.65-4.9 6.65-5.85L6.65-5.85 6.65-25.7Q6.65-26.65 6.48-27.53 6.3-28.4 5.65-28.98 5-29.55 3.4-29.55L3.4-29.55Q2.9-29.55 2.55-29.65 2.2-29.75 2.15-30.6L2.15-30.6Q2.15-31 2.35-31.35 2.55-31.7 3.05-31.7L3.05-31.7Q4.65-31.65 6.05-31.6 7.45-31.55 8.95-31.55L8.95-31.55Q12-31.55 15.2-31.7L15.2-31.7Q15.7-31.7 15.9-31.35 16.1-31 16.1-30.6L16.1-30.6Q16.05-29.75 15.73-29.65 15.4-29.55 14.85-29.55L14.85-29.55Q13.3-29.55 12.63-28.98 11.95-28.4 11.8-27.53 11.65-26.65 11.6-25.7L11.6-25.7 11.6-16.65Q12.45-16.85 13.58-17.68 14.7-18.5 15.85-19.45L15.85-19.45Q17.75-21.2 19.55-23.23 21.35-25.25 22.9-27.1L22.9-27.1Q24.9-29.35 22.45-29.5L22.45-29.5Q21.9-29.55 21.75-30.55L21.75-30.55Q21.75-31 22-31.35 22.25-31.7 22.65-31.7L22.65-31.7Q23.95-31.6 25.4-31.58 26.85-31.55 28.15-31.55L28.15-31.55Q29.15-31.55 30.45-31.6 31.75-31.65 32.7-31.7L32.7-31.7Q33.2-31.7 33.43-31.35 33.65-31 33.65-30.55L33.65-30.55Q33.6-29.8 33.33-29.65 33.05-29.5 32.65-29.5L32.65-29.5Q30.8-29.6 29-28.9 27.2-28.2 25.15-26.15L25.15-26.15Q24.5-25.45 23.48-24.38 22.45-23.3 21.33-22.15 20.2-21 19.23-20 18.25-19 17.65-18.35 17.05-17.7 17.05-17.7L17.05-17.7Q20-14.15 23.03-11.15 26.05-8.15 28.2-5.85L28.2-5.85Q29.9-4.15 30.98-3.18 32.05-2.2 33.75-2L33.75-2Q34.15-1.95 34.55-1.88 34.95-1.8 35-0.95L35-0.95Q35-0.55 34.8-0.2 34.6 0.15 34.1 0.15L34.1 0.15Q33.05 0.1 32.48 0.08 31.9 0.05 31.38 0.03 30.85 0 29.85 0L29.85 0 26.65 0Q23.9-3.05 21.03-6.3 18.15-9.55 14.85-13.35L14.85-13.35Q13.95-14.4 13.18-14.85 12.4-15.3 11.6-15.35L11.6-15.35 11.6-5.85Q11.65-4.9 11.8-4.03 11.95-3.15 12.63-2.58 13.3-2 14.85-2L14.85-2Q15.4-2 15.73-1.9 16.05-1.8 16.1-0.95L16.1-0.95Q16.1-0.55 15.9-0.2 15.7 0.15 15.2 0.15L15.2 0.15Q12 0 9 0L9 0Q7.5 0 6.08 0.03 4.65 0.05 3.05 0.15Z" opacity="1" transform="matrix(1,0,0,1,0,0)" fill="black" class="wordmark-text-0" id="SvgjsPath1434"></path></svg></g></svg></g></svg></g></svg></g><g transform="matrix(1,0,0,1,71.33490498816653,0)"><svg viewBox="0 0 112.2915714993341 112.2915714993341" height="112.2915714993341" width="112.2915714993341"><g><svg></svg></g><g id="SvgjsG1433"><svg viewBox="0 0 112.2915714993341 112.2915714993341" height="112.2915714993341" width="112.2915714993341"><g><path d="M0 56.146c0-31.008 25.137-56.146 56.146-56.146 31.008 0 56.146 25.137 56.146 56.146 0 31.008-25.137 56.146-56.146 56.146-31.008 0-56.146-25.137-56.146-56.146zM56.146 89.999c18.697 0 33.853-15.157 33.853-33.853 0-18.697-15.157-33.853-33.853-33.853-18.697 0-33.853 15.157-33.853 33.853 0 18.697 15.157 33.853 33.853 33.853z" fill="black" stroke="transparent"></path><ellipse rx="55.58432789217038" ry="55.58432789217038" cx="56.14578574966705" cy="56.14578574966705" fill="black" stroke="transparent" stroke-width="0" fill-opacity="1"></ellipse></g><g transform="matrix(1,0,0,1,55.0889760293875,55.09622035151706)"><svg viewBox="0 0 2.1136194405590913 2.099130796299972" height="2.099130796299972" width="2.1136194405590913"><g><svg xmlns="http://www.w3.org/2000/svg" xmlns:xlink="http://www.w3.org/1999/xlink" version="1.1" x="0" y="0" viewBox="0.572 0.9999375304993624 62.428 62.00006246950064" style="enable-background:new 0 0 64 64;" xml:space="preserve" height="2.099130796299972" width="2.1136194405590913" class="icon-dxe-0" data-fill-palette-color="quaternary" id="SvgjsSvg1432"><g fill="black"><path d="M63 50.782V43.218L60.264 42.54A14 14 0 0 0 59.536 40.77L60.988 38.36 55.639 33.012 53.229 34.463A14 14 0 0 0 51.46 33.734L50.782 31H43.218L42.54 33.735C41.929 33.94 41.337 34.183 40.771 34.464L38.361 33.013 33.012 38.361 33.544 39.244 27 38.153V37.895A12.06 12.06 0 0 0 32.376 33H34C35.654 33 37 31.654 37 30 38.654 30 40 28.654 40 27V23A3 3 0 0 0 38 20.184V16.85C38 8.11 30.89 1 22.151 1A15.74 15.74 0 0 0 10.944 5.643L10.48 6.105A6.27 6.27 0 0 0 6 12.123V20.184A3 3 0 0 0 4 23V27C4 28.654 5.346 30 7 30H10.395A12.04 12.04 0 0 0 17 37.895V38.153L9.291 39.438A7.01 7.01 0 0 0 3.863 43.951L0.572 53H34.36C34.396 53.076 34.427 53.155 34.464 53.229L33.012 55.639 38.361 60.987 40.771 59.536C41.337 59.816 41.929 60.059 42.54 60.265L43.218 63H50.782L51.46 60.265A14 14 0 0 0 53.229 59.536L55.639 60.987 60.988 55.639 59.536 53.229C59.816 52.664 60.059 52.072 60.264 51.459zM31.879 51H23V44.899A5 5 0 0 0 26.982 40.177L34.189 41.378C34.024 41.757 33.869 42.142 33.736 42.54L31 43.218V50.782zM19 38.605C19.961 38.854 20.963 39 22 39S24.039 38.854 25 38.605V40C25 41.654 23.654 43 22 43S19 41.654 19 40zM34 31H33.3C33.416 30.673 33.517 30.34 33.605 30H35C35 30.552 34.551 31 34 31M38 27C38 27.552 37.551 28 37 28V24H35V28H33.949C33.977 27.669 34 27.338 34 27V22H37C37.551 22 38 22.448 38 23zM7 28C6.449 28 6 27.552 6 27V23C6 22.448 6.449 22 7 22H10V27C10 27.338 10.023 27.669 10.051 28zM10 18V20H8V12.123A4.274 4.274 0 0 1 11.243 7.97L11.512 7.904 12.359 7.057A13.75 13.75 0 0 1 22.151 3C29.787 3 36 9.213 36 16.85V20H34V18H33A13.4 13.4 0 0 1 23.465 14.051L22 12.585 20.536 14.051A13.4 13.4 0 0 1 11 18zM12 27V19.969A15.37 15.37 0 0 0 21.95 15.465L22 15.415 22.05 15.465A15.37 15.37 0 0 0 32 19.969V27A9.9 9.9 0 0 1 31.159 31H25.816A3 3 0 0 0 23 29H21C19.346 29 18 30.346 18 32S19.346 35 21 35H23A3 3 0 0 0 25.816 33H29.981C28.154 35.423 25.262 37 22 37 16.486 37 12 32.514 12 27M24 32C24 32.552 23.551 33 23 33H21A1.001 1.001 0 0 1 21 31H23C23.551 31 24 31.448 24 32M5.743 44.634A5.01 5.01 0 0 1 9.62 41.41L17.018 40.177A5 5 0 0 0 21 44.899V51H10.281L10.97 48.242 9.03 47.758 8.219 51H3.428zM58.678 49.793L58.517 50.347C58.267 51.209 57.93 52.029 57.514 52.783L57.236 53.288 58.468 55.332 55.332 58.469 53.288 57.237 52.783 57.515C52.027 57.931 51.207 58.269 50.347 58.519L49.793 58.679 49.218 61H44.782L44.207 58.678 43.653 58.518C42.793 58.268 41.974 57.93 41.217 57.514L40.712 57.236 38.668 58.468 35.532 55.331 36.764 53.287 36.486 52.782A12 12 0 0 1 35.483 50.346L35.322 49.792 33 49.218V44.782L35.322 44.207 35.483 43.653C35.733 42.791 36.07 41.971 36.486 41.217L36.764 40.712 35.532 38.668 38.668 35.531 40.712 36.763 41.217 36.485A12 12 0 0 1 43.653 35.481L44.207 35.321 44.782 33H49.218L49.793 35.322 50.347 35.482C51.207 35.732 52.026 36.07 52.783 36.486L53.288 36.764 55.332 35.532 58.468 38.669 57.236 40.713 57.514 41.218C57.93 41.972 58.267 42.791 58.517 43.654L58.678 44.208 61 44.782V49.218z" fill="black"></path><path d="M47 37C41.486 37 37 41.486 37 47S41.486 57 47 57 57 52.514 57 47 52.514 37 47 37M47 55C42.589 55 39 51.411 39 47S42.589 39 47 39 55 42.589 55 47 51.411 55 47 55" fill="black"></path><path d="M47 41C43.691 41 41 43.691 41 47S43.691 53 47 53V51C44.794 51 43 49.206 43 47S44.794 43 47 43 51 44.794 51 47H53C53 43.691 50.309 41 47 41" fill="black"></path><circle cx="16" cy="23" r="1.0" fill="black"></circle><circle cx="28" cy="23" r="1.0" fill="black"></circle></g></svg></g></svg></g></svg></g></svg></g><g></g></svg></g><defs><mask></mask></defs></svg><rect width="132.35080805315113" height="247.2" fill="black" stroke="none" visibility="hidden"></rect></g></mask></svg><rect width="132.35080805315113" height="247.2" fill="black" stroke="none" visibility="hidden"></rect></g></mask><linearGradient x1="0" x2="1" y1="0.5" y2="0.5" id="f6c07ce7-1d56-436f-a8f8-1cc0423335d0"><stop stop-color="#f00b51" offset="0"></stop><stop stop-color="#730062" offset="1"></stop></linearGradient><rect width="132.35080805315113" height="247.2" fill="url(#f6c07ce7-1d56-436f-a8f8-1cc0423335d0)" mask="url(#d83fab65-76a9-44a9-a3c0-f29c94002662)" data-fill-palette-color="accent"></rect></svg><rect width="132.35080805315113" height="247.2" fill="none" stroke="none" visibility="hidden"></rect></g></svg></g></svg>